999
FreeCAD v0.21 33771 (Git)
  0
SECTION
  2
HEADER
  9
$ACADVER
  1
AC1014
  9
$ACADMAINTVER
 70
     9
  9
$DWGCODEPAGE
  3
ANSI_1252
  9
$TEXTSTYLE
  7
STANDARD
  9
$DIMSTYLE
  2
STANDARD
  9
$DIMTXSTY
  7
STANDARD
  9
$CMLSTYLE
  2
STANDARD
  9
$LUNITS
 70
2
  9
$INSUNITS
 70
4
  9
$PEXTMAX
 10
50
 20
50
 30
50
  9
$PEXTMIN
 10
0
 20
0
 30
0
  9
$HANDSEED
  5
FFFF
  0
ENDSEC
  0
SECTION
  2
CLASSES
  0
CLASS
  1
ACDBDICTIONARYWDFLT
  2
AcDbDictionaryWithDefault
  3
ObjectDBX Classes
 90
        0
280
     0
281
     0
  0
CLASS
  1
XRECORD
  2
AcDbXrecord
  3
ObjectDBX Classes
 90
        0
280
     0
281
     0
  0
CLASS
  1
LWPOLYLINE
  2
AcDbPolyline
  3
ObjectDBX Classes
 90
        0
280
     0
281
     1
  0
ENDSEC
  0
SECTION
  2
TABLES
  0
TABLE
  2
VPORT
  5
20
330
0
100
AcDbSymbolTable
 70
     1
  0
VPORT
  5
21
330
20
100
AcDbSymbolTableRecord
100
AcDbViewportTableRecord
  2
*ACTIVE
 70
     0
  0
ENDTAB
  0
TABLE
  2
LTYPE
  5
22
330
0
100
AcDbSymbolTable
 70
     1
  0
LTYPE
  5
23
330
21
100
AcDbSymbolTableRecord
100
AcDbLinetypeTableRecord
  2
BYBLOCK
 70
     0
  3

 72
    65
 73
     0
 40
0.0
  0
LTYPE
  5
24
330
21
100
AcDbSymbolTableRecord
100
AcDbLinetypeTableRecord
  2
BYLAYER
 70
     0
  3

 72
    65
 73
     0
 40
0.0
  0
LTYPE
  5
25
330
21
100
AcDbSymbolTableRecord
100
AcDbLinetypeTableRecord
  2
CONTINUOUS
 70
     0
  3
Solid line
 72
    65
 73
     0
 40
0.0
  0
ENDTAB
  0
TABLE
  2
LAYER
  5
A32
330
0
100
AcDbSymbolTable
 70
3
  0
LAYER
  5
A33
330
A32
100
AcDbSymbolTableRecord
100
AcDbLayerTableRecord
  2
0
 70
   0
 62
   7
  6
CONTINUOUS
  0
LAYER
  5
A34
330
A32
100
AcDbSymbolTableRecord
100
AcDbLayerTableRecord
  2
none
 70
    0
 62
    7
  6
CONTINUOUS
  0
LAYER
  5
A35
330
A32
100
AcDbSymbolTableRecord
100
AcDbLayerTableRecord
  2
ShapeBinder
 70
    0
 62
    7
  6
CONTINUOUS
  0
ENDTAB
  0
TABLE
  2
STYLE
  5
70
330
0
100
AcDbSymbolTable
 70
     2
  0
STYLE
  5
71
330
70
100
AcDbSymbolTableRecord
100
AcDbTextStyleTableRecord
  2
STANDARD
 70
     0
 40
0.0
 41
1.0
 50
0.0
 71
     0
 42
2.5
  3
arial.ttf
  4

  0
STYLE
  5
72
330
70
100
AcDbSymbolTableRecord
100
AcDbTextStyleTableRecord
  2
ANNOTATIVE
 70
     0
 40
0.0
 41
1.0
 50
0.0
 71
     0
 42
2.5
  3
arial.ttf
  4

  0
ENDTAB
  0
TABLE
  2
VIEW
  5
73
330
0
100
AcDbSymbolTable
 70
     0
  0
ENDTAB
  0
TABLE
  2
UCS
  5
74
330
0
100
AcDbSymbolTable
 70
     0
  0
ENDTAB
  0
TABLE
  2
APPID
  5
75
330
0
100
AcDbSymbolTable
 70
     2
  0
APPID
  5
76
330
75
100
AcDbSymbolTableRecord
100
AcDbRegAppTableRecord
  2
ACAD
 70
     0
  0
APPID
  5
77
330
75
100
AcDbSymbolTableRecord
100
AcDbRegAppTableRecord
  2
ACADANNOTATIVE
 70
     0
  0
ENDTAB
  0
TABLE
  2
DIMSTYLE
  5
78
330
0
100
AcDbSymbolTable
 70
     2
  0
DIMSTYLE
105
79
330
78
100
AcDbSymbolTableRecord
100
AcDbDimStyleTableRecord
  2
STANDARD
 70
     0
  3

  4

  5

  6

  7

 40
0.0
 41
2.5
 42
0.625
 43
3.75
 44
1.25
 45
0.0
 46
0.0
 47
0.0
 48
0.0
140
2.5
141
2.5
142
0.0
143
0.03937007874016
144
1.0
145
0.0
146
1.0
147
0.625
 71
     0
 72
     0
 73
     0
 74
     0
 75
     0
 76
     0
 77
     1
 78
     8
170
     0
171
     3
172
     1
173
     0
174
     0
175
     0
176
     0
177
     0
178
     0
270
     2
271
     2
272
     2
273
     2
274
     3
340
71
275
     0
280
     0
281
     0
282
     0
283
     0
284
     8
285
     0
286
     0
287
     3
288
     0
  0
ENDTAB
  0
TABLE
  2
BLOCK_RECORD
  5
A01
330
0
100
AcDbSymbolTable
  70
5
  0
BLOCK_RECORD
  5
A02
330
A01
100
AcDbSymbolTableRecord
100
AcDbBlockTableRecord
  2
*MODEL_SPACE
  0
BLOCK_RECORD
  5
A03
330
A01
100
AcDbSymbolTableRecord
100
AcDbBlockTableRecord
  2
*PAPER_SPACE
  0
ENDTAB
  0
ENDSEC
  0
SECTION
  2
BLOCKS
  0
BLOCK
  5
A04
330
A02
100
AcDbEntity
  8
0
100
AcDbBlockBegin
  2
*MODEL_SPACE
 70
   0
 10
0
 20
0
 30
0
  3
*MODEL_SPACE
  1
 
  0
ENDBLK
  5
A05
330
A02
100
AcDbEntity
  8
0
100
AcDbBlockEnd
  0
BLOCK
  5
A06
330
A03
100
AcDbEntity
 67
1
  8
0
100
AcDbBlockBegin
  2
*PAPER_SPACE
 70
   0
 10
0
 20
0
 30
0
  3
*PAPER_SPACE
  1
 
  0
ENDBLK
  5
A07
330
A03
100
AcDbEntity
 67
    1
  8
0
100
AcDbBlockEnd
  0
ENDSEC
  0
SECTION
  2
ENTITIES
  0
LINE
  5
A08
330
A02
100
AcDbEntity
  8
ShapeBinder
100
AcDbLine
 10
-0.548248
 20
-32.0702
 30
0
 11
-3.05868
 21
-34.9609
 31
0
  0
LINE
  5
A09
330
A02
100
AcDbEntity
  8
ShapeBinder
100
AcDbLine
 10
2.65271
 20
-34.85
 30
0
 11
-0.548248
 21
-32.0702
 31
0
  0
LINE
  5
A0A
330
A02
100
AcDbEntity
  8
ShapeBinder
100
AcDbLine
 10
2.65271
 20
-34.85
 30
0
 11
1.19558
 21
-51.5051
 31
0
  0
LINE
  5
A0B
330
A02
100
AcDbEntity
  8
ShapeBinder
100
AcDbLine
 10
-5.27114
 20
-60.2494
 30
0
 11
1.19558
 21
-51.5051
 31
0
  0
LINE
  5
A0C
330
A02
100
AcDbEntity
  8
ShapeBinder
100
AcDbLine
 10
-5.27114
 20
-60.2494
 30
0
 11
-3.05868
 21
-34.9609
 31
0
  0
LINE
  5
A0D
330
A02
100
AcDbEntity
  8
ShapeBinder
100
AcDbLine
 10
-0.118213
 20
-1.35118
 30
0
 11
5.08655
 21
-7.03114
 31
0
  0
LINE
  5
A0E
330
A02
100
AcDbEntity
  8
ShapeBinder
100
AcDbLine
 10
5.08655
 20
-7.03114
 30
0
 11
3.57851
 21
-24.2681
 31
0
  0
LINE
  5
A0F
330
A02
100
AcDbEntity
  8
ShapeBinder
100
AcDbLine
 10
-2.76193
 20
-31.569
 30
0
 11
3.57851
 21
-24.2681
 31
0
  0
LINE
  5
A10
330
A02
100
AcDbEntity
  8
ShapeBinder
100
AcDbLine
 10
-2.76193
 20
-31.569
 30
0
 11
-0.118213
 21
-1.35118
 31
0
  0
LINE
  5
A11
330
A02
100
AcDbEntity
  8
ShapeBinder
100
AcDbLine
 10
25.8417
 20
-5.68
 30
0
 11
27.3637
 21
2.66454e-15
 31
0
  0
LINE
  5
A12
330
A02
100
AcDbEntity
  8
ShapeBinder
100
AcDbLine
 10
25.8417
 20
-5.68
 30
0
 11
6.56114
 21
-5.68
 31
0
  0
LINE
  5
A13
330
A02
100
AcDbEntity
  8
ShapeBinder
100
AcDbLine
 10
6.56114
 20
-5.68
 30
0
 11
1.35635
 21
0
 31
0
  0
LINE
  5
A14
330
A02
100
AcDbEntity
  8
ShapeBinder
100
AcDbLine
 10
1.35635
 20
-2.54851e-34
 30
0
 11
27.3637
 21
-5.14152e-33
 31
0
  0
LINE
  5
A15
330
A02
100
AcDbEntity
  8
ShapeBinder
100
AcDbLine
 10
29.4343
 20
-5.53057e-33
 30
0
 11
32.8
 21
-6.16298e-33
 31
0
  0
LINE
  5
A16
330
A02
100
AcDbEntity
  8
ShapeBinder
100
AcDbLine
 10
32.8
 20
-6.16298e-33
 30
0
 11
30.6481
 21
-24.5958
 31
0
  0
LINE
  5
A17
330
A02
100
AcDbEntity
  8
ShapeBinder
100
AcDbLine
 10
27.8911
 20
-28.3238
 30
0
 11
30.6481
 21
-24.5958
 31
0
  0
LINE
  5
A18
330
A02
100
AcDbEntity
  8
ShapeBinder
100
AcDbLine
 10
24.8191
 20
-26.052
 30
0
 11
27.8911
 21
-28.3238
 31
0
  0
LINE
  5
A19
330
A02
100
AcDbEntity
  8
ShapeBinder
100
AcDbLine
 10
24.8191
 20
-26.052
 30
0
 11
25.9658
 21
-12.9444
 31
0
  0
LINE
  5
A1A
330
A02
100
AcDbEntity
  8
ShapeBinder
100
AcDbLine
 10
29.4343
 20
0
 30
0
 11
25.9658
 21
-12.9444
 31
0
  0
LINE
  5
A1B
330
A02
100
AcDbEntity
  8
ShapeBinder
100
AcDbLine
 10
30.3144
 20
-28.4106
 30
0
 11
27.5814
 21
-59.6488
 31
0
  0
LINE
  5
A1C
330
A02
100
AcDbEntity
  8
ShapeBinder
100
AcDbLine
 10
27.5814
 20
-59.6488
 30
0
 11
22.3766
 21
-53.9688
 31
0
  0
LINE
  5
A1D
330
A02
100
AcDbEntity
  8
ShapeBinder
100
AcDbLine
 10
23.8477
 20
-37.1549
 30
0
 11
22.3766
 21
-53.9688
 31
0
  0
LINE
  5
A1E
330
A02
100
AcDbEntity
  8
ShapeBinder
100
AcDbLine
 10
30.3144
 20
-28.4106
 30
0
 11
23.8477
 21
-37.1549
 31
0
  0
LINE
  5
A1F
330
A02
100
AcDbEntity
  8
ShapeBinder
100
AcDbLine
 10
26.1069
 20
-61
 30
0
 11
-3.33876
 21
-61
 31
0
  0
LINE
  5
A20
330
A02
100
AcDbEntity
  8
ShapeBinder
100
AcDbLine
 10
0.861824
 20
-55.32
 30
0
 11
-3.33876
 21
-61
 31
0
  0
LINE
  5
A21
330
A02
100
AcDbEntity
  8
ShapeBinder
100
AcDbLine
 10
20.9021
 20
-55.32
 30
0
 11
0.861824
 21
-55.32
 31
0
  0
LINE
  5
A22
330
A02
100
AcDbEntity
  8
ShapeBinder
100
AcDbLine
 10
20.9021
 20
-55.32
 30
0
 11
26.1069
 21
-61
 31
0
  0
LINE
  5
A23
330
A02
100
AcDbEntity
  8
ShapeBinder
100
AcDbLine
 10
9.40542
 20
-53.32
 30
0
 11
22.7024
 21
-35.34
 31
0
  0
LINE
  5
A24
330
A02
100
AcDbEntity
  8
ShapeBinder
100
AcDbLine
 10
9.40542
 20
-53.32
 30
0
 11
2.3409
 21
-53.32
 31
0
  0
LINE
  5
A25
330
A02
100
AcDbEntity
  8
ShapeBinder
100
AcDbLine
 10
2.3409
 20
-53.32
 30
0
 11
15.6378
 21
-35.34
 31
0
  0
LINE
  5
A26
330
A02
100
AcDbEntity
  8
ShapeBinder
100
AcDbLine
 10
15.6378
 20
-35.34
 30
0
 11
22.7024
 21
-35.34
 31
0
  0
LINE
  5
A27
330
A02
100
AcDbEntity
  8
ShapeBinder
100
AcDbLine
 10
26.7019
 20
-29.9319
 30
0
 11
23.6298
 21
-27.66
 31
0
  0
LINE
  5
A28
330
A02
100
AcDbEntity
  8
ShapeBinder
100
AcDbLine
 10
24.1814
 20
-33.34
 30
0
 11
26.7019
 21
-29.9319
 31
0
  0
LINE
  5
A29
330
A02
100
AcDbEntity
  8
ShapeBinder
100
AcDbLine
 10
24.1814
 20
-33.34
 30
0
 11
3.96411
 21
-33.34
 31
0
  0
LINE
  5
A2A
330
A02
100
AcDbEntity
  8
ShapeBinder
100
AcDbLine
 10
0.763147
 20
-30.5601
 30
0
 11
3.96411
 21
-33.34
 31
0
  0
LINE
  5
A2B
330
A02
100
AcDbEntity
  8
ShapeBinder
100
AcDbLine
 10
3.28176
 20
-27.66
 30
0
 11
0.763147
 21
-30.5601
 31
0
  0
LINE
  5
A2C
330
A02
100
AcDbEntity
  8
ShapeBinder
100
AcDbLine
 10
3.28176
 20
-27.66
 30
0
 11
23.6298
 21
-27.66
 31
0
  0
LINE
  5
A2D
330
A02
100
AcDbEntity
  8
ShapeBinder
100
AcDbLine
 10
24.034
 20
-12.4267
 30
0
 11
12.5416
 21
-25.66
 31
0
  0
LINE
  5
A2E
330
A02
100
AcDbEntity
  8
ShapeBinder
100
AcDbLine
 10
5.01865
 20
-25.66
 30
0
 11
12.5416
 21
-25.66
 31
0
  0
LINE
  5
A2F
330
A02
100
AcDbEntity
  8
ShapeBinder
100
AcDbLine
 10
5.01865
 20
-25.66
 30
0
 11
20.6333
 21
-7.68
 31
0
  0
LINE
  5
A30
330
A02
100
AcDbEntity
  8
ShapeBinder
100
AcDbLine
 10
25.3059
 20
-7.68
 30
0
 11
20.6333
 21
-7.68
 31
0
  0
LINE
  5
A31
330
A02
100
AcDbEntity
  8
ShapeBinder
100
AcDbLine
 10
24.034
 20
-12.4267
 30
0
 11
25.3059
 21
-7.68
 31
0
  0
ENDSEC
  0
SECTION
  2
OBJECTS
  0
DICTIONARY
  5
F000
330
0
100
AcDbDictionary
  3
ACAD_GROUP
350
F001
  0
DICTIONARY
  5
F001
330
F000
100
AcDbDictionary
  0
ENDSEC
  0
EOF