999
FreeCAD v0.21 33771 (Git)
  0
SECTION
  2
HEADER
  9
$ACADVER
  1
AC1014
  9
$ACADMAINTVER
 70
     9
  9
$DWGCODEPAGE
  3
ANSI_1252
  9
$TEXTSTYLE
  7
STANDARD
  9
$DIMSTYLE
  2
STANDARD
  9
$DIMTXSTY
  7
STANDARD
  9
$CMLSTYLE
  2
STANDARD
  9
$LUNITS
 70
2
  9
$INSUNITS
 70
4
  9
$PEXTMAX
 10
50
 20
50
 30
50
  9
$PEXTMIN
 10
0
 20
0
 30
0
  9
$HANDSEED
  5
FFFF
  0
ENDSEC
  0
SECTION
  2
CLASSES
  0
CLASS
  1
ACDBDICTIONARYWDFLT
  2
AcDbDictionaryWithDefault
  3
ObjectDBX Classes
 90
        0
280
     0
281
     0
  0
CLASS
  1
XRECORD
  2
AcDbXrecord
  3
ObjectDBX Classes
 90
        0
280
     0
281
     0
  0
CLASS
  1
LWPOLYLINE
  2
AcDbPolyline
  3
ObjectDBX Classes
 90
        0
280
     0
281
     1
  0
ENDSEC
  0
SECTION
  2
TABLES
  0
TABLE
  2
VPORT
  5
20
330
0
100
AcDbSymbolTable
 70
     1
  0
VPORT
  5
21
330
20
100
AcDbSymbolTableRecord
100
AcDbViewportTableRecord
  2
*ACTIVE
 70
     0
  0
ENDTAB
  0
TABLE
  2
LTYPE
  5
22
330
0
100
AcDbSymbolTable
 70
     1
  0
LTYPE
  5
23
330
21
100
AcDbSymbolTableRecord
100
AcDbLinetypeTableRecord
  2
BYBLOCK
 70
     0
  3

 72
    65
 73
     0
 40
0.0
  0
LTYPE
  5
24
330
21
100
AcDbSymbolTableRecord
100
AcDbLinetypeTableRecord
  2
BYLAYER
 70
     0
  3

 72
    65
 73
     0
 40
0.0
  0
LTYPE
  5
25
330
21
100
AcDbSymbolTableRecord
100
AcDbLinetypeTableRecord
  2
CONTINUOUS
 70
     0
  3
Solid line
 72
    65
 73
     0
 40
0.0
  0
ENDTAB
  0
TABLE
  2
LAYER
  5
A3A
330
0
100
AcDbSymbolTable
 70
3
  0
LAYER
  5
A3B
330
A3A
100
AcDbSymbolTableRecord
100
AcDbLayerTableRecord
  2
0
 70
   0
 62
   7
  6
CONTINUOUS
  0
LAYER
  5
A3C
330
A3A
100
AcDbSymbolTableRecord
100
AcDbLayerTableRecord
  2
none
 70
    0
 62
    7
  6
CONTINUOUS
  0
LAYER
  5
A3D
330
A3A
100
AcDbSymbolTableRecord
100
AcDbLayerTableRecord
  2
ShapeBinder
 70
    0
 62
    7
  6
CONTINUOUS
  0
ENDTAB
  0
TABLE
  2
STYLE
  5
70
330
0
100
AcDbSymbolTable
 70
     2
  0
STYLE
  5
71
330
70
100
AcDbSymbolTableRecord
100
AcDbTextStyleTableRecord
  2
STANDARD
 70
     0
 40
0.0
 41
1.0
 50
0.0
 71
     0
 42
2.5
  3
arial.ttf
  4

  0
STYLE
  5
72
330
70
100
AcDbSymbolTableRecord
100
AcDbTextStyleTableRecord
  2
ANNOTATIVE
 70
     0
 40
0.0
 41
1.0
 50
0.0
 71
     0
 42
2.5
  3
arial.ttf
  4

  0
ENDTAB
  0
TABLE
  2
VIEW
  5
73
330
0
100
AcDbSymbolTable
 70
     0
  0
ENDTAB
  0
TABLE
  2
UCS
  5
74
330
0
100
AcDbSymbolTable
 70
     0
  0
ENDTAB
  0
TABLE
  2
APPID
  5
75
330
0
100
AcDbSymbolTable
 70
     2
  0
APPID
  5
76
330
75
100
AcDbSymbolTableRecord
100
AcDbRegAppTableRecord
  2
ACAD
 70
     0
  0
APPID
  5
77
330
75
100
AcDbSymbolTableRecord
100
AcDbRegAppTableRecord
  2
ACADANNOTATIVE
 70
     0
  0
ENDTAB
  0
TABLE
  2
DIMSTYLE
  5
78
330
0
100
AcDbSymbolTable
 70
     2
  0
DIMSTYLE
105
79
330
78
100
AcDbSymbolTableRecord
100
AcDbDimStyleTableRecord
  2
STANDARD
 70
     0
  3

  4

  5

  6

  7

 40
0.0
 41
2.5
 42
0.625
 43
3.75
 44
1.25
 45
0.0
 46
0.0
 47
0.0
 48
0.0
140
2.5
141
2.5
142
0.0
143
0.03937007874016
144
1.0
145
0.0
146
1.0
147
0.625
 71
     0
 72
     0
 73
     0
 74
     0
 75
     0
 76
     0
 77
     1
 78
     8
170
     0
171
     3
172
     1
173
     0
174
     0
175
     0
176
     0
177
     0
178
     0
270
     2
271
     2
272
     2
273
     2
274
     3
340
71
275
     0
280
     0
281
     0
282
     0
283
     0
284
     8
285
     0
286
     0
287
     3
288
     0
  0
ENDTAB
  0
TABLE
  2
BLOCK_RECORD
  5
A01
330
0
100
AcDbSymbolTable
  70
5
  0
BLOCK_RECORD
  5
A02
330
A01
100
AcDbSymbolTableRecord
100
AcDbBlockTableRecord
  2
*MODEL_SPACE
  0
BLOCK_RECORD
  5
A03
330
A01
100
AcDbSymbolTableRecord
100
AcDbBlockTableRecord
  2
*PAPER_SPACE
  0
ENDTAB
  0
ENDSEC
  0
SECTION
  2
BLOCKS
  0
BLOCK
  5
A04
330
A02
100
AcDbEntity
  8
0
100
AcDbBlockBegin
  2
*MODEL_SPACE
 70
   0
 10
0
 20
0
 30
0
  3
*MODEL_SPACE
  1
 
  0
ENDBLK
  5
A05
330
A02
100
AcDbEntity
  8
0
100
AcDbBlockEnd
  0
BLOCK
  5
A06
330
A03
100
AcDbEntity
 67
1
  8
0
100
AcDbBlockBegin
  2
*PAPER_SPACE
 70
   0
 10
0
 20
0
 30
0
  3
*PAPER_SPACE
  1
 
  0
ENDBLK
  5
A07
330
A03
100
AcDbEntity
 67
    1
  8
0
100
AcDbBlockEnd
  0
ENDSEC
  0
SECTION
  2
ENTITIES
  0
LINE
  5
A08
330
A02
100
AcDbEntity
  8
ShapeBinder
100
AcDbLine
 10
9.64052
 20
47.2708
 30
3
 11
38.6785
 21
47.2708
 31
3
  0
LINE
  5
A09
330
A02
100
AcDbEntity
  8
ShapeBinder
100
AcDbLine
 10
35.5171
 20
44.877
 30
3
 11
38.6785
 21
47.2708
 31
3
  0
LINE
  5
A0A
330
A02
100
AcDbEntity
  8
ShapeBinder
100
AcDbLine
 10
23.1913
 20
41.2708
 30
3
 11
35.5171
 21
44.877
 31
3
  0
LINE
  5
A0B
330
A02
100
AcDbEntity
  8
ShapeBinder
100
AcDbLine
 10
14.6751
 20
41.2708
 30
3
 11
23.1913
 21
41.2708
 31
3
  0
LINE
  5
A0C
330
A02
100
AcDbEntity
  8
ShapeBinder
100
AcDbLine
 10
14.6751
 20
41.2708
 30
3
 11
9.64052
 21
47.2708
 31
3
  0
LINE
  5
A0D
330
A02
100
AcDbEntity
  8
ShapeBinder
100
AcDbLine
 10
4.71959
 20
26.7661
 30
3
 11
8.10843
 21
45.9852
 31
3
  0
LINE
  5
A0E
330
A02
100
AcDbEntity
  8
ShapeBinder
100
AcDbLine
 10
13.143
 20
39.9852
 30
3
 11
8.10843
 21
45.9852
 31
3
  0
LINE
  5
A0F
330
A02
100
AcDbEntity
  8
ShapeBinder
100
AcDbLine
 10
11.6518
 20
31.5279
 30
3
 11
13.143
 21
39.9852
 31
3
  0
LINE
  5
A10
330
A02
100
AcDbEntity
  8
ShapeBinder
100
AcDbLine
 10
9.26516
 20
25.9646
 30
3
 11
11.6518
 21
31.5279
 31
3
  0
LINE
  5
A11
330
A02
100
AcDbEntity
  8
ShapeBinder
100
AcDbLine
 10
4.71959
 20
26.7661
 30
3
 11
9.26516
 21
25.9646
 31
3
  0
LINE
  5
A12
330
A02
100
AcDbEntity
  8
ShapeBinder
100
AcDbLine
 10
23.753
 20
39.3512
 30
3
 11
13.4898
 21
30.7394
 31
3
  0
LINE
  5
A13
330
A02
100
AcDbEntity
  8
ShapeBinder
100
AcDbLine
 10
23.753
 20
39.3512
 30
3
 11
33.7315
 21
42.2708
 31
3
  0
LINE
  5
A14
330
A02
100
AcDbEntity
  8
ShapeBinder
100
AcDbLine
 10
33.7315
 20
42.2708
 30
3
 11
30.595
 21
37.26
 31
3
  0
LINE
  5
A15
330
A02
100
AcDbEntity
  8
ShapeBinder
100
AcDbLine
 10
20.1992
 20
28.5369
 30
3
 11
30.595
 21
37.26
 31
3
  0
LINE
  5
A16
330
A02
100
AcDbEntity
  8
ShapeBinder
100
AcDbLine
 10
11.3002
 20
25.6354
 30
3
 11
20.1992
 21
28.5369
 31
3
  0
LINE
  5
A17
330
A02
100
AcDbEntity
  8
ShapeBinder
100
AcDbLine
 10
13.4898
 20
30.7394
 30
3
 11
11.3002
 21
25.6354
 31
3
  0
LINE
  5
A18
330
A02
100
AcDbEntity
  8
ShapeBinder
100
AcDbLine
 10
40.0799
 20
45.8232
 30
3
 11
35.9628
 21
22.4743
 31
3
  0
LINE
  5
A19
330
A02
100
AcDbEntity
  8
ShapeBinder
100
AcDbLine
 10
35.9628
 20
22.4743
 30
3
 11
30.9251
 21
23.3625
 31
3
  0
LINE
  5
A1A
330
A02
100
AcDbEntity
  8
ShapeBinder
100
AcDbLine
 10
30.6337
 20
26.8041
 30
3
 11
30.9251
 21
23.3625
 31
3
  0
LINE
  5
A1B
330
A02
100
AcDbEntity
  8
ShapeBinder
100
AcDbLine
 10
32.2903
 20
36.1988
 30
3
 11
30.6337
 21
26.8041
 31
3
  0
LINE
  5
A1C
330
A02
100
AcDbEntity
  8
ShapeBinder
100
AcDbLine
 10
32.2903
 20
36.1988
 30
3
 11
36.7244
 21
43.2825
 31
3
  0
LINE
  5
A1D
330
A02
100
AcDbEntity
  8
ShapeBinder
100
AcDbLine
 10
36.7244
 20
43.2825
 30
3
 11
40.0799
 21
45.8232
 31
3
  0
LINE
  5
A1E
330
A02
100
AcDbEntity
  8
ShapeBinder
100
AcDbLine
 10
11.445
 20
23.579
 30
3
 11
11.6943
 21
20.6354
 31
3
  0
LINE
  5
A1F
330
A02
100
AcDbEntity
  8
ShapeBinder
100
AcDbLine
 10
20.8192
 20
26.6354
 30
3
 11
11.445
 21
23.579
 31
3
  0
LINE
  5
A20
330
A02
100
AcDbEntity
  8
ShapeBinder
100
AcDbLine
 10
28.6409
 20
26.6354
 30
3
 11
20.8192
 21
26.6354
 31
3
  0
LINE
  5
A21
330
A02
100
AcDbEntity
  8
ShapeBinder
100
AcDbLine
 10
28.8901
 20
23.6918
 30
3
 11
28.6409
 21
26.6354
 31
3
  0
LINE
  5
A22
330
A02
100
AcDbEntity
  8
ShapeBinder
100
AcDbLine
 10
19.5159
 20
20.6354
 30
3
 11
28.8901
 21
23.6918
 31
3
  0
LINE
  5
A23
330
A02
100
AcDbEntity
  8
ShapeBinder
100
AcDbLine
 10
19.5159
 20
20.6354
 30
3
 11
11.6943
 21
20.6354
 31
3
  0
LINE
  5
A24
330
A02
100
AcDbEntity
  8
ShapeBinder
100
AcDbLine
 10
9.41001
 20
23.9082
 30
3
 11
4.37229
 21
24.7965
 31
3
  0
LINE
  5
A25
330
A02
100
AcDbEntity
  8
ShapeBinder
100
AcDbLine
 10
9.70138
 20
20.4667
 30
3
 11
9.41001
 21
23.9082
 31
3
  0
LINE
  5
A26
330
A02
100
AcDbEntity
  8
ShapeBinder
100
AcDbLine
 10
9.70138
 20
20.4667
 30
3
 11
8.04485
 21
11.072
 31
3
  0
LINE
  5
A27
330
A02
100
AcDbEntity
  8
ShapeBinder
100
AcDbLine
 10
3.61074
 20
3.98825
 30
3
 11
8.04485
 21
11.072
 31
3
  0
LINE
  5
A28
330
A02
100
AcDbEntity
  8
ShapeBinder
100
AcDbLine
 10
0.255247
 20
1.44758
 30
3
 11
3.61074
 21
3.98825
 31
3
  0
LINE
  5
A29
330
A02
100
AcDbEntity
  8
ShapeBinder
100
AcDbLine
 10
0.255247
 20
1.44758
 30
3
 11
4.37229
 21
24.7965
 31
3
  0
LINE
  5
A2A
330
A02
100
AcDbEntity
  8
ShapeBinder
100
AcDbLine
 10
9.74012
 20
10.0108
 30
3
 11
20.1359
 21
18.7339
 31
3
  0
LINE
  5
A2B
330
A02
100
AcDbEntity
  8
ShapeBinder
100
AcDbLine
 10
20.1359
 20
18.7339
 30
3
 11
29.0349
 21
21.6354
 31
3
  0
LINE
  5
A2C
330
A02
100
AcDbEntity
  8
ShapeBinder
100
AcDbLine
 10
26.8453
 20
16.5313
 30
3
 11
29.0349
 21
21.6354
 31
3
  0
LINE
  5
A2D
330
A02
100
AcDbEntity
  8
ShapeBinder
100
AcDbLine
 10
26.8453
 20
16.5313
 30
3
 11
16.5822
 21
7.91953
 31
3
  0
LINE
  5
A2E
330
A02
100
AcDbEntity
  8
ShapeBinder
100
AcDbLine
 10
6.60356
 20
5
 30
3
 11
16.5822
 21
7.91953
 31
3
  0
LINE
  5
A2F
330
A02
100
AcDbEntity
  8
ShapeBinder
100
AcDbLine
 10
9.74012
 20
10.0108
 30
3
 11
6.60356
 21
5
 31
3
  0
LINE
  5
A30
330
A02
100
AcDbEntity
  8
ShapeBinder
100
AcDbLine
 10
27.2183
 20
7.43443
 30
3
 11
32.4198
 21
2.3807
 31
3
  0
LINE
  5
A31
330
A02
100
AcDbEntity
  8
ShapeBinder
100
AcDbLine
 10
27.2183
 20
7.43443
 30
3
 11
28.6833
 21
15.7429
 31
3
  0
LINE
  5
A32
330
A02
100
AcDbEntity
  8
ShapeBinder
100
AcDbLine
 10
28.6833
 20
15.7429
 30
3
 11
31.0699
 21
21.3062
 31
3
  0
LINE
  5
A33
330
A02
100
AcDbEntity
  8
ShapeBinder
100
AcDbLine
 10
35.6155
 20
20.5046
 30
3
 11
31.0699
 21
21.3062
 31
3
  0
LINE
  5
A34
330
A02
100
AcDbEntity
  8
ShapeBinder
100
AcDbLine
 10
35.6155
 20
20.5046
 30
3
 11
32.4198
 21
2.3807
 31
3
  0
LINE
  5
A35
330
A02
100
AcDbEntity
  8
ShapeBinder
100
AcDbLine
 10
4.81804
 20
2.39375
 30
3
 11
1.65659
 21
-4.44089e-16
 31
3
  0
LINE
  5
A36
330
A02
100
AcDbEntity
  8
ShapeBinder
100
AcDbLine
 10
17.1438
 20
6
 30
3
 11
4.81804
 21
2.39375
 31
3
  0
LINE
  5
A37
330
A02
100
AcDbEntity
  8
ShapeBinder
100
AcDbLine
 10
17.1438
 20
6
 30
3
 11
25.8246
 21
6
 31
3
  0
LINE
  5
A38
330
A02
100
AcDbEntity
  8
ShapeBinder
100
AcDbLine
 10
25.8246
 20
6
 30
3
 11
32
 21
0
 31
3
  0
LINE
  5
A39
330
A02
100
AcDbEntity
  8
ShapeBinder
100
AcDbLine
 10
32
 20
0
 30
3
 11
1.65659
 21
0
 31
3
  0
ENDSEC
  0
SECTION
  2
OBJECTS
  0
DICTIONARY
  5
F000
330
0
100
AcDbDictionary
  3
ACAD_GROUP
350
F001
  0
DICTIONARY
  5
F001
330
F000
100
AcDbDictionary
  0
ENDSEC
  0
EOF