<?xml version="1.0"?>
<!DOCTYPE svg PUBLIC "-//W3C//DTD SVG 1.1//EN" "http://www.w3.org/Graphics/SVG/1.1/DTD/svg11.dtd">
<svg width="23.325680503071155mm" height="38.45736628437395mm" viewBox="0 0 23.325680503071155 38.45736628437395" xmlns="http://www.w3.org/2000/svg" version="1.1">
<g id="ShapeBinder" transform="translate(4.096997,0.228683) scale(1,-1)">
<path id="ShapeBinder_f0000"  d="M 1.4565714383519315 -14.841965182425527 L -1.9894401288540486 -18.928258445773185 L -0.10549260600415994 -1.0036951007492312 L 2.595720035054662 -4.003690265879435 L 1.4565714383519315 -14.841965182425527 Z " stroke="#ffd700" stroke-width="0.35 px" style="stroke-width:0.35;stroke-miterlimit:4;stroke-dasharray:none;stroke-linecap:square;fill:#ffd700;fill-opacity:0.4;fill-rule: evenodd"/>
<path id="ShapeBinder_f0001"  d="M 14.873583289661976 -3.0000000000000013 L 15.677430866955346 -1.7193629073169883e-20 L 1.0092253604502424 -2.2136594504642272e-21 L 3.7104423548440093 -3.0 L 14.873583289661976 -3.0 Z " stroke="#ffd700" stroke-width="0.35 px" style="stroke-width:0.35;stroke-miterlimit:4;stroke-dasharray:none;stroke-linecap:square;fill:#ffd700;fill-opacity:0.4;fill-rule: evenodd"/>
<path id="ShapeBinder_f0002"  d="M 17.3433446376299 -15.762022892631453 L 15.997635980440034 -17.57619998267776 L 14.270774358991279 -16.295259634294677 L 15.178713886463834 -7.656792067526057 L 17.23034513757047 0.0 L 19.0 -4.167506208926066e-20 L 17.3433446376299 -15.762022892631453 Z " stroke="#ffd700" stroke-width="0.35 px" style="stroke-width:0.35;stroke-miterlimit:4;stroke-dasharray:none;stroke-linecap:square;fill:#ffd700;fill-opacity:0.4;fill-rule: evenodd"/>
<path id="ShapeBinder_f0003"  d="M 2.442165572980768 -16.0 L 12.140229434017252 -4.5 L 14.471659501015292 -4.500000000000002 L 13.729825147030231 -7.2685634998722755 L 6.366518296871658 -16.0 L 2.442165572980768 -16.0 Z " stroke="#ffd700" stroke-width="0.35 px" style="stroke-width:0.35;stroke-miterlimit:4;stroke-dasharray:none;stroke-linecap:square;fill:#ffd700;fill-opacity:0.4;fill-rule: evenodd"/>
<path id="ShapeBinder_f0004"  d="M 15.103991391556843 -18.78094034838308 L 13.377129770108088 -17.5 L 1.1772007215412272 -17.5 L -0.08051737496794487 -18.99140677119749 L 1.7083780561016044 -20.5 L 13.828838338363102 -20.5 L 15.103991391556843 -18.78094034838308 Z " stroke="#ffd700" stroke-width="0.35 px" style="stroke-width:0.35;stroke-miterlimit:4;stroke-dasharray:none;stroke-linecap:square;fill:#ffd700;fill-opacity:0.4;fill-rule: evenodd"/>
<path id="ShapeBinder_f0005"  d="M 4.185781638191829 -33.5 L 12.716177949881809 -21.99999999999999 L 8.980933304563182 -21.99999999999999 L 0.45053699287320603 -33.5 L 4.185781638191829 -33.5 Z " stroke="#ffd700" stroke-width="0.35 px" style="stroke-width:0.35;stroke-miterlimit:4;stroke-dasharray:none;stroke-linecap:square;fill:#ffd700;fill-opacity:0.4;fill-rule: evenodd"/>
<path id="ShapeBinder_f0006"  d="M -0.662123395608095 -35.0 L 11.295594911156893 -35.0 L 13.996813442370243 -38.0 L -2.887444172570695 -38.0 L -0.6621233956080942 -35.0 Z " stroke="#ffd700" stroke-width="0.35 px" style="stroke-width:0.35;stroke-miterlimit:4;stroke-dasharray:none;stroke-linecap:square;fill:#ffd700;fill-opacity:0.4;fill-rule: evenodd"/>
<path id="ShapeBinder_f0007"  d="M -1.0475289616726409 -20.13809268773212 L -2.26881084566476 -21.586293263347667 L -3.8683142186972077 -36.80455130013685 L -0.3538079194304098 -32.0665741927683 L 0.7413664693969081 -21.646685916534633 L -1.0475289616726409 -20.13809268773212 Z " stroke="#ffd700" stroke-width="0.35 px" style="stroke-width:0.35;stroke-miterlimit:4;stroke-dasharray:none;stroke-linecap:square;fill:#ffd700;fill-opacity:0.4;fill-rule: evenodd"/>
<path id="ShapeBinder_f0008"  d="M 12.4103188373357 -33.9963115181968 L 13.520522862185418 -23.433425807231696 L 17.035029161452208 -18.69544869986316 L 15.111531639036013 -36.99630515492527 L 12.4103188373357 -33.9963115181968 Z " stroke="#ffd700" stroke-width="0.35 px" style="stroke-width:0.35;stroke-miterlimit:4;stroke-dasharray:none;stroke-linecap:square;fill:#ffd700;fill-opacity:0.4;fill-rule: evenodd"/>
<title>b'ShapeBinder'</title>
</g>
</svg>