<?xml version="1.0"?>
<!DOCTYPE svg PUBLIC "-//W3C//DTD SVG 1.1//EN" "http://www.w3.org/Graphics/SVG/1.1/DTD/svg11.dtd">
<svg width="30.69289645308124mm" height="50.601821499080124mm" viewBox="0 0 30.69289645308124 50.601821499080124" xmlns="http://www.w3.org/2000/svg" version="1.1">
<g id="ShapeBinder" transform="translate(5.391986,0.300911) scale(1,-1)">
<path id="ShapeBinder_f0000"  d="M 1.9786346411094504 -19.441637842086067 L -2.6196800071901807 -24.924590348829568 L -0.14065692203484037 -1.3382612196234622 L 3.4609592509366665 -5.338261260776077 L 1.9786346411094506 -19.441637842086067 Z " stroke="#ffd700" stroke-width="0.35 px" style="stroke-width:0.35;stroke-miterlimit:4;stroke-dasharray:none;stroke-linecap:square;fill:#ffd700;fill-opacity:0.4;fill-rule: evenodd"/>
<path id="ShapeBinder_f0001"  d="M 19.1973083628837 -3.6934888741715772 L 19.958020868858675 -2.8455325874340814e-14 L 1.3456327227019815 -1.8908724614550723e-15 L 4.94724885861952 -4.000000000000008 L 15.693870163286274 -4.000000000000022 L 19.1973083628837 -3.6934888741715772 Z " stroke="#ffd700" stroke-width="0.35 px" style="stroke-width:0.35;stroke-miterlimit:4;stroke-dasharray:none;stroke-linecap:square;fill:#ffd700;fill-opacity:0.4;fill-rule: evenodd"/>
<path id="ShapeBinder_f0002"  d="M 22.832122359577482 -20.62597796925537 L 21.02602636177322 -23.079552075396144 L 18.72985834191007 -21.38932398708136 L 19.912885811016192 -10.133569483625756 L 22.000000000060435 -3.091422603680163e-14 L 25.000000000060435 -3.5129802314535726e-14 L 22.832122359577482 -20.62597796925537 Z " stroke="#ffd700" stroke-width="0.35 px" style="stroke-width:0.35;stroke-miterlimit:4;stroke-dasharray:none;stroke-linecap:square;fill:#ffd700;fill-opacity:0.4;fill-rule: evenodd"/>
<path id="ShapeBinder_f0003"  d="M 3.281949032205663 -21.000000000001215 L 15.868181648781588 -5.992389396183514 L 18.776226500757346 -5.737968438610714 L 17.954001932684932 -9.730116944640216 L 8.502439426105916 -21.000000000001222 L 3.281949032205663 -21.000000000001215 Z " stroke="#ffd700" stroke-width="0.35 px" style="stroke-width:0.35;stroke-miterlimit:4;stroke-dasharray:none;stroke-linecap:square;fill:#ffd700;fill-opacity:0.4;fill-rule: evenodd"/>
<path id="ShapeBinder_f0004"  d="M 19.840394554927364 -24.690228088316008 L 17.544226535064215 -23.000000000001226 L 1.604635707808221 -23.000000000001204 L -0.0742289852134943 -25.001849825673848 L 2.3083314407524425 -27.000000000001208 L 18.140152530407057 -27.00000000000123 L 19.840394554927364 -24.690228088316008 Z " stroke="#ffd700" stroke-width="0.35 px" style="stroke-width:0.35;stroke-miterlimit:4;stroke-dasharray:none;stroke-linecap:square;fill:#ffd700;fill-opacity:0.4;fill-rule: evenodd"/>
<path id="ShapeBinder_f0005"  d="M -1.3594058156179785 -26.534272911701816 L -2.99367894049141 -28.482952506744706 L -5.091074953940778 -48.438342589125334 L -0.3991051247799291 -42.06432055839247 L 1.0231546103479583 -28.532423086029176 L -1.3594058156179785 -26.534272911701816 Z " stroke="#ffd700" stroke-width="0.35 px" style="stroke-width:0.35;stroke-miterlimit:4;stroke-dasharray:none;stroke-linecap:square;fill:#ffd700;fill-opacity:0.4;fill-rule: evenodd"/>
<path id="ShapeBinder_f0006"  d="M 5.626313276143477 -43.99999999999938 L 16.66793614755235 -29.000000000001243 L 11.701077551640493 -29.00000000000123 L 0.6594546802298955 -44.00000000000171 L 5.626313276143477 -43.99999999999938 Z " stroke="#ffd700" stroke-width="0.35 px" style="stroke-width:0.35;stroke-miterlimit:4;stroke-dasharray:none;stroke-linecap:square;fill:#ffd700;fill-opacity:0.4;fill-rule: evenodd"/>
<path id="ShapeBinder_f0007"  d="M 16.283829979385146 -44.66172929976004 L 17.72649595255612 -30.935679441618717 L 22.418465781726546 -24.56165741087285 L 19.885445302406033 -48.66173742761134 L 16.28382997938515 -44.66172929976004 Z " stroke="#ffd700" stroke-width="0.35 px" style="stroke-width:0.35;stroke-miterlimit:4;stroke-dasharray:none;stroke-linecap:square;fill:#ffd700;fill-opacity:0.4;fill-rule: evenodd"/>
<path id="ShapeBinder_f0008"  d="M -0.8127617026253162 -46.00000000000009 L 14.797548871033797 -46.00000000000005 L 18.39915687570156 -50.00000000000004 L -3.757194468333019 -50.00000000000011 L -0.8127617026253149 -46.00000000000241 Z " stroke="#ffd700" stroke-width="0.35 px" style="stroke-width:0.35;stroke-miterlimit:4;stroke-dasharray:none;stroke-linecap:square;fill:#ffd700;fill-opacity:0.4;fill-rule: evenodd"/>
<title>b'ShapeBinder'</title>
</g>
</svg>